<svg width="128" height="128" viewBox="0 0 128 128" fill="none" xmlns="http://www.w3.org/2000/svg">
  <rect width="128" height="128" rx="28" fill="#111116"/>
  <path
    d="M34 26H82C86.4183 26 90 29.5817 90 34V88.2C90 90.5 88.4 92.4 86.2 93.1L78 96.2L70 93.1L62 96.2L54 93.1L46 96.2L38 93.1C35.8 92.4 34 90.5 34 88.2V26Z"
    fill="#F5F3EE"
  />
  <path
    d="M34 88.2L46 93.1L54 90.2V99.5L46 96.2L38 99.5L34 96.8V88.2Z"
    fill="#D9D4C8"
  />
  <path d="M48 46H76" stroke="#0F766E" stroke-width="7" stroke-linecap="round"/>
  <path d="M48 60H80" stroke="#0F766E" stroke-width="7" stroke-linecap="round"/>
  <path d="M48 74H68" stroke="#0F766E" stroke-width="7" stroke-linecap="round"/>
  <circle cx="90" cy="86" r="18" fill="#FBBF24"/>
  <circle cx="90" cy="86" r="14" stroke="#111116" stroke-width="3"/>
  <path
    d="M90 78.5V93.5M83.25 86H96.75"
    stroke="#111116"
    stroke-width="4"
    stroke-linecap="round"
  />
</svg>
